<svg xmlns="http://www.w3.org/2000/svg" viewBox="0 0 127.166 22.795"><svg xmlns="http://www.w3.org/2000/svg" width="74.396" height="16.055" viewBox="0 0 74.396 16.055" x="0" style="margin-right: 10px; display: inline-block;"><path id="Pfad_59" data-name="Pfad 59" d="M-1.942-1.967q0-1.575,1.434-1.575a2.157,2.157,0,0,1,1.272.384l.828-2.282a3.261,3.261,0,0,0-1.06-.434A5.759,5.759,0,0,0-.811-6.027a4.216,4.216,0,0,0-3.1,1.091,3.965,3.965,0,0,0-1.1,2.949V-1.5H-6.688V.921h1.676v8.2h3.15V.921H.845V-1.5H-1.942Zm8.542.06a9.556,9.556,0,0,0-2.554.343,6.836,6.836,0,0,0-2.131.969l1.131,2.2A4.5,4.5,0,0,1,4.469.87,5.488,5.488,0,0,1,6.176.6a2.76,2.76,0,0,1,1.878.555,2.009,2.009,0,0,1,.627,1.585h-2.5a5.818,5.818,0,0,0-3.524.869A2.832,2.832,0,0,0,1.511,5.99,3.047,3.047,0,0,0,2,7.686,3.226,3.226,0,0,0,3.4,8.857a5.134,5.134,0,0,0,2.171.424A3.511,3.511,0,0,0,8.882,7.766V9.12h2.949V2.92A4.6,4.6,0,0,0,10.478-.705,5.656,5.656,0,0,0,6.6-1.907M6.358,7.16a2.131,2.131,0,0,1-1.3-.353,1.131,1.131,0,0,1-.475-.959q0-1.273,1.939-1.273H8.681V5.687a2.047,2.047,0,0,1-.889,1.1,2.743,2.743,0,0,1-1.433.373M18.333,9.281a7.877,7.877,0,0,0,2.757-.434,3.866,3.866,0,0,0,1.767-1.222,2.87,2.87,0,0,0,.606-1.8,2.611,2.611,0,0,0-.626-1.858,3.274,3.274,0,0,0-1.474-.919,18.671,18.671,0,0,0-2.181-.475,9.654,9.654,0,0,1-1.737-.384.721.721,0,0,1-.545-.707A.832.832,0,0,1,17.4.759,3.188,3.188,0,0,1,18.919.476a6.279,6.279,0,0,1,3.131.807L23.1-.958a6.444,6.444,0,0,0-1.889-.7,10.584,10.584,0,0,0-2.292-.253,7.4,7.4,0,0,0-2.7.445A3.828,3.828,0,0,0,14.486-.22a2.974,2.974,0,0,0-.6,1.828,2.64,2.64,0,0,0,.636,1.9,3.408,3.408,0,0,0,1.5.929,16.164,16.164,0,0,0,2.2.465,8.08,8.08,0,0,1,1.677.343.7.7,0,0,1,.545.666q0,.99-2,.989a7.37,7.37,0,0,1-2.019-.292,6.621,6.621,0,0,1-1.757-.757L13.628,8.11a6.9,6.9,0,0,0,2.06.838,10.556,10.556,0,0,0,2.646.333M31.8-1.907a5.479,5.479,0,0,0-1.939.333,4.191,4.191,0,0,0-1.515.959V-5.865H25.2V9.12h3.15V3.748a3.051,3.051,0,0,1,.707-2.192,2.506,2.506,0,0,1,1.9-.737,2.075,2.075,0,0,1,1.636.636,2.834,2.834,0,0,1,.566,1.929V9.12h3.15V2.9A4.806,4.806,0,0,0,35.066-.7,4.474,4.474,0,0,0,31.8-1.907M38.3,9.12h3.15V-1.745H38.3ZM39.875-3.26a1.973,1.973,0,0,0,1.413-.514,1.714,1.714,0,0,0,.546-1.3,1.554,1.554,0,0,0-.546-1.212,2.049,2.049,0,0,0-1.413-.485,2,2,0,0,0-1.413.505,1.638,1.638,0,0,0-.546,1.252,1.638,1.638,0,0,0,.546,1.252,2,2,0,0,0,1.413.5m9.17,12.542a6.458,6.458,0,0,0,3.07-.717,5.353,5.353,0,0,0,2.121-1.99A5.48,5.48,0,0,0,55,3.687,5.482,5.482,0,0,0,54.236.8,5.352,5.352,0,0,0,52.115-1.19a6.451,6.451,0,0,0-3.07-.717,6.511,6.511,0,0,0-3.08.717A5.332,5.332,0,0,0,43.835.8a5.482,5.482,0,0,0-.767,2.888,5.48,5.48,0,0,0,.767,2.888,5.334,5.334,0,0,0,2.131,1.99,6.519,6.519,0,0,0,3.08.717m0-2.585a2.655,2.655,0,0,1-2-.818,3.024,3.024,0,0,1-.788-2.191A3.027,3.027,0,0,1,47.047,1.5a2.657,2.657,0,0,1,2-.818,2.626,2.626,0,0,1,1.99.818,3.051,3.051,0,0,1,.778,2.191,3.049,3.049,0,0,1-.778,2.191,2.624,2.624,0,0,1-1.99.818M63.2-1.907a5.416,5.416,0,0,0-2.039.374A4.177,4.177,0,0,0,59.61-.473V-1.745H56.6V9.12h3.15V3.748a3.051,3.051,0,0,1,.707-2.192,2.507,2.507,0,0,1,1.9-.737,2.074,2.074,0,0,1,1.636.636,2.834,2.834,0,0,1,.566,1.929V9.12h3.15V2.9A4.806,4.806,0,0,0,66.466-.7,4.473,4.473,0,0,0,63.2-1.907" transform="translate(6.688 6.774)" fill="#d2a371"/></svg><svg xmlns="http://www.w3.org/2000/svg" width="55" height="22.795" viewBox="0 0 49 22.795" x="74.396"><path id="Pfad_60" data-name="Pfad 60" d="M-19.326-2.617l.513-3.649h-1.6a15.68,15.68,0,0,1-1.663,3.692l-1.277.447-.234,1.022h1.277l-.743,5.844q-.213,1.575-.213,2A1.845,1.845,0,0,0-22.74,8.2a2.071,2.071,0,0,0,1.416.458,5.07,5.07,0,0,0,2.3-.511,5.232,5.232,0,0,0,1.575-1.128l-.233-.788a3.14,3.14,0,0,1-.9.5,2.821,2.821,0,0,1-.969.2.883.883,0,0,1-.66-.2,1,1,0,0,1-.192-.692q0-.255.149-1.49l.722-5.652h2.554l.213-1.511Zm-5.985,9.846-.277-.66a5.019,5.019,0,0,1-.6.415.842.842,0,0,1-.4.117q-.362,0-.362-.575a8.157,8.157,0,0,1,.117-1.213q.117-.745.245-1.448l.128-.681q.021-.192.266-1.617C-26.031.617-26,.927-26,.487a3.42,3.42,0,0,0-.692-2.405,2.569,2.569,0,0,0-1.947-.724A4.079,4.079,0,0,0-30.97-1.9,6.738,6.738,0,0,0-32.854.082l1.259-8.519-.511-.277-3.64.426-.149.787.976,1.432L-36.856,9.448l3.133-1.005L-33.088,2a7.378,7.378,0,0,1,1.5-1.99,2.512,2.512,0,0,1,1.607-.82.867.867,0,0,1,.788.362A2.687,2.687,0,0,1-28.958.891c0,.369.021-.2-.035.3s-.132,1.032-.224,1.586-.153.893-.181,1.021l-.128.724a19.225,19.225,0,0,0-.4,2.533,1.679,1.679,0,0,0,.383,1.181,1.91,1.91,0,0,0,1.426.415,3.132,3.132,0,0,0,1.788-.5,3.625,3.625,0,0,0,1.022-.926m-14.23,2.022,1.507-11.894-1.511.468a7.976,7.976,0,0,0-1.192-.33,6.486,6.486,0,0,0-1.277-.138,6.23,6.23,0,0,0-3.757,1.149,7.318,7.318,0,0,0-2.405,2.959,4.844,4.844,0,0,0-.518,2.762,5.259,5.259,0,0,0,.9,3.2A3.135,3.135,0,0,0-45.1,8.655a3.839,3.839,0,0,0,1.66-.362A4.983,4.983,0,0,0-42.1,7.378l-.319,2.533a2.861,2.861,0,0,1-.745,1.852,2.761,2.761,0,0,1-1.809.49,4.441,4.441,0,0,1-1.6-.319,7.456,7.456,0,0,1-1.235-.575l-.49,2a5,5,0,0,0,1.118.287,8.809,8.809,0,0,0,1.5.138,7.749,7.749,0,0,0,4.045-1.053,4.46,4.46,0,0,0,2.086-3.48M-41.035-1.067l-.848,6.913a3.944,3.944,0,0,1-.969.841,2.168,2.168,0,0,1-1.16.351,1.409,1.409,0,0,1-1.267-.777A4.27,4.27,0,0,1-45.736,4.1a4.954,4.954,0,0,1,.092-1.963A6.147,6.147,0,0,1-44.4-.333a2.692,2.692,0,0,1,2.129-.99,2.5,2.5,0,0,1,1.235.255m-9.119-5.146a1.942,1.942,0,0,0,.49-1.352,1.409,1.409,0,0,0-.383-.989,1.35,1.35,0,0,0-1.043-.415,1.78,1.78,0,0,0-1.33.532,1.808,1.808,0,0,0-.522,1.319,1.422,1.422,0,0,0,.415,1.011,1.317,1.317,0,0,0,.989.436,1.768,1.768,0,0,0,1.384-.543m-1.068,3.592-3.661.511-.149.83,1.255.6L-53.815.78q-.746,5.321-.873,6.428l-.021.213a1.048,1.048,0,0,0,.468.9,2.223,2.223,0,0,0,1.3.33,2.989,2.989,0,0,0,1.734-.49,4.464,4.464,0,0,0,1.075-.979l-.277-.66a4.1,4.1,0,0,1-.6.426.9.9,0,0,1-.426.128q-.362,0-.362-.511a1.322,1.322,0,0,1,.021-.255l1.061-8.7Zm-5.636-2.372.282-4.017h-3.205c.079.05.173.089.246.143A3.074,3.074,0,0,1-58.319-6.25a3.876,3.876,0,0,1-.217,1.238l0,.019ZM-59.3-2.935l-.591-.014a9.241,9.241,0,0,1-2.448,1.736A11.855,11.855,0,0,1-60.181.771l.57.016Zm-3.114-1.38a1.941,1.941,0,0,0,.49-1.351,1.408,1.408,0,0,0-.383-.99,1.35,1.35,0,0,0-1.043-.415,1.785,1.785,0,0,0-1.33.531A1.814,1.814,0,0,0-65.2-5.22a1.421,1.421,0,0,0,.415,1.011,1.317,1.317,0,0,0,.99.436,1.768,1.768,0,0,0,1.384-.543m-2.046,6.245a2.01,2.01,0,0,0-1.5.6,2.04,2.04,0,0,0-.588,1.487,1.6,1.6,0,0,0,.468,1.14,1.488,1.488,0,0,0,1.115.492A1.99,1.99,0,0,0-63.4,5.035a2.191,2.191,0,0,0,.552-1.523A1.586,1.586,0,0,0-63.28,2.4a1.519,1.519,0,0,0-1.175-.468m2.024,6.227a8.316,8.316,0,0,1-.867.286h5.327l.869-4.7-1.906-.206c0,.031.008.061.008.092a4.208,4.208,0,0,1-.949,2.714,6.1,6.1,0,0,1-2.482,1.813" transform="translate(66.542 9.01)" fill="#2b2e34"/></svg></svg>